<svg
  xmlns="http://www.w3.org/2000/svg"
  viewBox="0 0 512 512"
  role="img"
  aria-labelledby="title desc"
>
  <title id="title">HighlightSmith App Icon</title>
  <desc id="desc">A warm metallic monogram icon for HighlightSmith.</desc>
  <defs>
    <linearGradient id="bg" x1="0%" y1="0%" x2="100%" y2="100%">
      <stop offset="0%" stop-color="#201814" />
      <stop offset="55%" stop-color="#102028" />
      <stop offset="100%" stop-color="#0d1117" />
    </linearGradient>
    <linearGradient id="accent" x1="0%" y1="0%" x2="100%" y2="100%">
      <stop offset="0%" stop-color="#f6c37f" />
      <stop offset="100%" stop-color="#e58a3a" />
    </linearGradient>
    <linearGradient id="accentSoft" x1="100%" y1="0%" x2="0%" y2="100%">
      <stop offset="0%" stop-color="#a6d5df" />
      <stop offset="100%" stop-color="#5b95a1" />
    </linearGradient>
  </defs>
  <rect x="28" y="28" width="456" height="456" rx="112" fill="url(#bg)" />
  <path
    d="M148 138h64v96h88v-96h64v236h-64v-84h-88v84h-64z"
    fill="url(#accent)"
  />
  <path
    d="M148 202h216v44H148z"
    fill="url(#accentSoft)"
    opacity="0.92"
  />
  <path
    d="M176 88c34 0 58 17 80 40 23-23 51-40 91-40 34 0 58 10 82 28-26-7-46-9-67-9-37 0-65 14-89 39-23-23-47-39-83-39-22 0-42 3-70 11 17-17 33-30 56-38z"
    fill="#fff2df"
    opacity="0.22"
  />
</svg>
