<svg xmlns="http://www.w3.org/2000/svg" viewBox="0 0 1024 1024" role="img" aria-label="vaexcore pulse icon">
  <defs>
    <radialGradient id="bg" cx="50%" cy="43%" r="66%">
      <stop offset="0" stop-color="#15102c"/>
      <stop offset="0.58" stop-color="#070914"/>
      <stop offset="1" stop-color="#03040a"/>
    </radialGradient>
    <linearGradient id="v-main" x1="168" y1="210" x2="856" y2="836" gradientUnits="userSpaceOnUse">
      <stop offset="0" stop-color="#29dfff"/>
      <stop offset="0.5" stop-color="#ff31f6"/>
      <stop offset="1" stop-color="#23d7ff"/>
    </linearGradient>
    <linearGradient id="v-inner" x1="310" y1="290" x2="714" y2="760" gradientUnits="userSpaceOnUse">
      <stop offset="0" stop-color="#ff36f7"/>
      <stop offset="1" stop-color="#8b5cff"/>
    </linearGradient>
    <linearGradient id="pulse" x1="282" y1="390" x2="742" y2="708" gradientUnits="userSpaceOnUse">
      <stop offset="0" stop-color="#ff44f6"/>
      <stop offset="0.48" stop-color="#27ddff"/>
      <stop offset="1" stop-color="#27ddff"/>
    </linearGradient>
    <filter id="soft-glow" x="-50%" y="-50%" width="200%" height="200%">
      <feGaussianBlur stdDeviation="11" result="blur"/>
      <feMerge>
        <feMergeNode in="blur"/>
        <feMergeNode in="SourceGraphic"/>
      </feMerge>
    </filter>
  </defs>
  <rect width="1024" height="1024" fill="url(#bg)"/>
  <path d="M178 232 L512 816 L846 232" fill="none" stroke="url(#v-main)" stroke-width="58" stroke-linecap="round" stroke-linejoin="round" filter="url(#soft-glow)"/>
  <path d="M316 296 L512 714 L708 296" fill="none" stroke="url(#v-inner)" stroke-width="34" stroke-linecap="round" stroke-linejoin="round" opacity="0.9"/>
  <path d="M282 552 H360 L418 424 L490 688 L558 442 L616 552 H742" fill="none" stroke="url(#pulse)" stroke-width="62" stroke-linecap="round" stroke-linejoin="round" filter="url(#soft-glow)"/>
  <circle cx="512" cy="552" r="116" fill="none" stroke="#ff42f6" stroke-width="46" filter="url(#soft-glow)"/>
  <circle cx="512" cy="552" r="42" fill="#27ddff" filter="url(#soft-glow)"/>
  <path d="M312 724 H448 M500 724 H724" stroke="#ff38f4" stroke-width="30" stroke-linecap="round"/>
  <path d="M382 780 H642" stroke="#27ddff" stroke-width="22" stroke-linecap="round" opacity="0.9"/>
</svg>
