<svg xmlns="http://www.w3.org/2000/svg" viewBox="0 0 1024 1024" role="img" aria-label="vaexcore pulse icon">
  <defs>
    <radialGradient id="bg" cx="50%" cy="43%" r="66%">
      <stop offset="0" stop-color="#15102c"/>
      <stop offset="0.58" stop-color="#070914"/>
      <stop offset="1" stop-color="#03040a"/>
    </radialGradient>
    <linearGradient id="v-main" x1="168" y1="210" x2="856" y2="836" gradientUnits="userSpaceOnUse">
      <stop offset="0" stop-color="#29dfff"/>
      <stop offset="0.5" stop-color="#ff31f6"/>
      <stop offset="1" stop-color="#23d7ff"/>
    </linearGradient>
    <linearGradient id="v-inner" x1="310" y1="290" x2="714" y2="760" gradientUnits="userSpaceOnUse">
      <stop offset="0" stop-color="#ff36f7"/>
      <stop offset="1" stop-color="#8b5cff"/>
    </linearGradient>
    <linearGradient id="clap" x1="318" y1="330" x2="710" y2="650" gradientUnits="userSpaceOnUse">
      <stop offset="0" stop-color="#ff44f6"/>
      <stop offset="1" stop-color="#27ddff"/>
    </linearGradient>
    <filter id="soft-glow" x="-50%" y="-50%" width="200%" height="200%">
      <feGaussianBlur stdDeviation="11" result="blur"/>
      <feMerge>
        <feMergeNode in="blur"/>
        <feMergeNode in="SourceGraphic"/>
      </feMerge>
    </filter>
  </defs>
  <rect width="1024" height="1024" fill="url(#bg)"/>
  <path d="M178 232 L512 816 L846 232" fill="none" stroke="url(#v-main)" stroke-width="58" stroke-linecap="round" stroke-linejoin="round" filter="url(#soft-glow)"/>
  <path d="M316 296 L512 714 L708 296" fill="none" stroke="url(#v-inner)" stroke-width="34" stroke-linecap="round" stroke-linejoin="round" opacity="0.9"/>
  <g filter="url(#soft-glow)">
    <path d="M330 386 L654 330 L682 418 L358 474 Z" fill="#070914" stroke="url(#clap)" stroke-width="32" stroke-linejoin="round"/>
    <path d="M356 470 H682 V622 H342 V470 Z" fill="#070914" stroke="url(#clap)" stroke-width="32" stroke-linejoin="round"/>
    <path d="M420 364 L468 454 M534 344 L582 434" stroke="#ff5af8" stroke-width="26" stroke-linecap="round"/>
    <path d="M480 506 L480 588 L560 548 Z" fill="#27ddff"/>
  </g>
  <path d="M330 678 H412 L450 628 L500 724 L548 648 L594 678 H694" fill="none" stroke="#26ddff" stroke-width="26" stroke-linecap="round" stroke-linejoin="round"/>
  <path d="M370 742 H438 M482 742 H550 M594 742 H662" stroke="#ff38f4" stroke-width="18" stroke-linecap="round"/>
</svg>
